<svg width="118" height="24" viewBox="0 0 118 24" fill="none" xmlns="http://www.w3.org/2000/svg">
<path d="M0.708008 23V0.320039H5.32801V9.89604L9.41601 0.320039H13.896L9.64001 10.512L14.204 23H9.55601L6.05601 12.836L5.32801 14.124V23H0.708008ZM16.2132 23V0.320039H20.8052V23H16.2132ZM24.2783 23V0.320039H27.4983L32.5383 12.136V0.320039H36.3463V23H33.2663L28.2263 10.456V23H24.2783ZM46.1102 23.308C44.4489 23.308 43.1329 23.0093 42.1622 22.412C41.1916 21.8147 40.4916 20.9653 40.0622 19.864C39.6516 18.744 39.4462 17.4093 39.4462 15.86V7.40404C39.4462 5.85471 39.6516 4.52937 40.0622 3.42804C40.4916 2.32671 41.1916 1.48671 42.1622 0.90804C43.1329 0.329373 44.4489 0.0400391 46.1102 0.0400391C47.7902 0.0400391 49.1156 0.338706 50.0862 0.93604C51.0756 1.51471 51.7756 2.35471 52.1862 3.45604C52.6156 4.53871 52.8302 5.85471 52.8302 7.40404V15.86C52.8302 17.4093 52.6156 18.744 52.1862 19.864C51.7756 20.9653 51.0756 21.8147 50.0862 22.412C49.1156 23.0093 47.7902 23.308 46.1102 23.308ZM46.1102 19.976C46.7076 19.976 47.1462 19.8453 47.4262 19.584C47.7062 19.304 47.8929 18.94 47.9862 18.492C48.0796 18.0253 48.1262 17.5307 48.1262 17.008V6.28404C48.1262 5.76137 48.0796 5.27604 47.9862 4.82804C47.8929 4.38004 47.7062 4.02537 47.4262 3.76404C47.1462 3.48404 46.7076 3.34404 46.1102 3.34404C45.5502 3.34404 45.1302 3.48404 44.8502 3.76404C44.5702 4.02537 44.3836 4.38004 44.2902 4.82804C44.1969 5.27604 44.1502 5.76137 44.1502 6.28404V17.008C44.1502 17.5307 44.1876 18.0253 44.2622 18.492C44.3556 18.94 44.5422 19.304 44.8222 19.584C45.1022 19.8453 45.5316 19.976 46.1102 19.976Z" fill="white"/>
<path d="M55.8311 23L56.2231 0.320039H61.1231L63.9231 14.628L66.9191 0.320039H71.6511L72.0431 23H68.6831L68.3191 7.62804L65.4351 23H62.5511L59.5271 7.51604L59.2191 23H55.8311ZM81.7119 23.308C80.0505 23.308 78.7345 23.0093 77.7639 22.412C76.7932 21.8147 76.0932 20.9653 75.6639 19.864C75.2532 18.744 75.0479 17.4093 75.0479 15.86V7.40404C75.0479 5.85471 75.2532 4.52937 75.6639 3.42804C76.0932 2.32671 76.7932 1.48671 77.7639 0.90804C78.7345 0.329373 80.0505 0.0400391 81.7119 0.0400391C83.3919 0.0400391 84.7172 0.338706 85.6879 0.93604C86.6772 1.51471 87.3772 2.35471 87.7879 3.45604C88.2172 4.53871 88.4319 5.85471 88.4319 7.40404V15.86C88.4319 17.4093 88.2172 18.744 87.7879 19.864C87.3772 20.9653 86.6772 21.8147 85.6879 22.412C84.7172 23.0093 83.3919 23.308 81.7119 23.308ZM81.7119 19.976C82.3092 19.976 82.7479 19.8453 83.0279 19.584C83.3079 19.304 83.4945 18.94 83.5879 18.492C83.6812 18.0253 83.7279 17.5307 83.7279 17.008V6.28404C83.7279 5.76137 83.6812 5.27604 83.5879 4.82804C83.4945 4.38004 83.3079 4.02537 83.0279 3.76404C82.7479 3.48404 82.3092 3.34404 81.7119 3.34404C81.1519 3.34404 80.7319 3.48404 80.4519 3.76404C80.1719 4.02537 79.9852 4.38004 79.8919 4.82804C79.7985 5.27604 79.7519 5.76137 79.7519 6.28404V17.008C79.7519 17.5307 79.7892 18.0253 79.8639 18.492C79.9572 18.94 80.1439 19.304 80.4239 19.584C80.7039 19.8453 81.1332 19.976 81.7119 19.976ZM91.5167 23V0.320039H97.3967C98.9274 0.320039 100.234 0.497373 101.317 0.852041C102.418 1.18804 103.258 1.79471 103.837 2.67204C104.434 3.54937 104.733 4.76271 104.733 6.31204C104.733 7.24537 104.649 8.07604 104.481 8.80404C104.331 9.51337 104.051 10.1387 103.641 10.68C103.249 11.2027 102.689 11.6227 101.961 11.94L105.097 23H100.365L97.7607 12.724H96.1367V23H91.5167ZM96.1367 9.98004H97.4807C98.2274 9.98004 98.8154 9.85871 99.2447 9.61604C99.674 9.37337 99.9727 9.00937 100.141 8.52404C100.327 8.02004 100.421 7.40404 100.421 6.67604C100.421 5.63071 100.225 4.83737 99.8327 4.29604C99.4594 3.73604 98.75 3.45604 97.7047 3.45604H96.1367V9.98004ZM107.841 23V0.320039H117.725V3.51204H112.461V9.53204H116.521V12.752H112.461V19.864H117.781V23H107.841Z" fill="#175A77"/>
</svg>
